<mxfile host="65bd71144e">
    <diagram id="tr8WCDj-hul7nBdrf4UF" name="Страница 1">
        <mxGraphModel dx="573" dy="540" grid="1" gridSize="10" guides="1" tooltips="1" connect="0" arrows="1" fold="1" page="1" pageScale="1" pageWidth="827" pageHeight="1169" math="0" shadow="0">
            <root>
                <mxCell id="0"/>
                <mxCell id="1" parent="0"/>
                <mxCell id="2" style="edgeStyle=orthogonalEdgeStyle;rounded=0;orthogonalLoop=1;jettySize=auto;html=1;" parent="1" source="3" target="4" edge="1">
                    <mxGeometry relative="1" as="geometry"/>
                </mxCell>
                <mxCell id="3" value="Запуск" style="rounded=1;whiteSpace=wrap;html=1;arcSize=50;" parent="1" vertex="1">
                    <mxGeometry x="305" y="20" width="140" height="40" as="geometry"/>
                </mxCell>
                <mxCell id="195" style="edgeStyle=none;html=1;" parent="1" source="4" edge="1">
                    <mxGeometry relative="1" as="geometry">
                        <mxPoint x="375" y="200" as="targetPoint"/>
                    </mxGeometry>
                </mxCell>
                <mxCell id="4" value="int a[5];" style="rounded=0;whiteSpace=wrap;html=1;" parent="1" vertex="1">
                    <mxGeometry x="315" y="120" width="120" height="50" as="geometry"/>
                </mxCell>
                <mxCell id="5" value="#include &amp;lt;iostream&amp;gt;&lt;br&gt;using namespace std;&lt;br&gt;int main() {&lt;br&gt;setlocale(LC_ALL, &quot;Russian&quot;);" style="strokeWidth=2;html=1;shape=mxgraph.flowchart.annotation_2;align=left;labelPosition=right;pointerEvents=1;" parent="1" vertex="1">
                    <mxGeometry x="455" y="50" width="20" height="60" as="geometry"/>
                </mxCell>
                <mxCell id="6" value="" style="endArrow=none;dashed=1;html=1;entryX=0;entryY=0.5;entryDx=0;entryDy=0;entryPerimeter=0;" parent="1" target="5" edge="1">
                    <mxGeometry width="50" height="50" relative="1" as="geometry">
                        <mxPoint x="375" y="80" as="sourcePoint"/>
                        <mxPoint x="465" y="70" as="targetPoint"/>
                    </mxGeometry>
                </mxCell>
                <mxCell id="7" value="Конец" style="rounded=1;whiteSpace=wrap;html=1;arcSize=50;" parent="1" vertex="1">
                    <mxGeometry x="306.26" y="1270" width="140" height="40" as="geometry"/>
                </mxCell>
                <mxCell id="10" value="return 0;&lt;br&gt;}" style="strokeWidth=2;html=1;shape=mxgraph.flowchart.annotation_2;align=left;labelPosition=right;pointerEvents=1;" parent="1" vertex="1">
                    <mxGeometry x="478.01" y="1220" width="20" height="60" as="geometry"/>
                </mxCell>
                <mxCell id="11" value="" style="endArrow=none;dashed=1;html=1;entryX=0;entryY=0.5;entryDx=0;entryDy=0;entryPerimeter=0;" parent="1" edge="1">
                    <mxGeometry width="50" height="50" relative="1" as="geometry">
                        <mxPoint x="378.01" y="1250" as="sourcePoint"/>
                        <mxPoint x="478.01" y="1250" as="targetPoint"/>
                    </mxGeometry>
                </mxCell>
                <mxCell id="236" style="edgeStyle=none;html=1;" parent="1" source="234" edge="1">
                    <mxGeometry relative="1" as="geometry">
                        <mxPoint x="375" y="280" as="targetPoint"/>
                    </mxGeometry>
                </mxCell>
                <mxCell id="234" value="int count = 1;" style="rounded=0;whiteSpace=wrap;html=1;" parent="1" vertex="1">
                    <mxGeometry x="315" y="200" width="120" height="50" as="geometry"/>
                </mxCell>
                <mxCell id="325" style="edgeStyle=orthogonalEdgeStyle;rounded=0;html=1;entryX=0.49;entryY=0;entryDx=0;entryDy=0;entryPerimeter=0;" edge="1" parent="1" source="252" target="319">
                    <mxGeometry relative="1" as="geometry"/>
                </mxCell>
                <mxCell id="252" value="int max = -999;" style="rounded=0;whiteSpace=wrap;html=1;" parent="1" vertex="1">
                    <mxGeometry x="315" y="280" width="120" height="50" as="geometry"/>
                </mxCell>
                <mxCell id="305" style="edgeStyle=orthogonalEdgeStyle;rounded=0;html=1;strokeColor=#f0f0f0;" parent="1" source="301" target="303" edge="1">
                    <mxGeometry relative="1" as="geometry"/>
                </mxCell>
                <mxCell id="301" value="cout &amp;lt;&amp;lt; &quot;Максимальный элемент массива: &quot; &amp;lt;&amp;lt; max &amp;lt;&amp;lt; endl;" style="shape=parallelogram;perimeter=parallelogramPerimeter;whiteSpace=wrap;html=1;fixedSize=1;" parent="1" vertex="1">
                    <mxGeometry x="209.51" y="1080" width="334.49" height="50" as="geometry"/>
                </mxCell>
                <mxCell id="307" style="edgeStyle=orthogonalEdgeStyle;rounded=0;html=1;strokeColor=#f0f0f0;" parent="1" target="7" edge="1">
                    <mxGeometry relative="1" as="geometry">
                        <mxPoint x="376.30999999999995" y="1200" as="sourcePoint"/>
                    </mxGeometry>
                </mxCell>
                <mxCell id="303" value="cout &amp;lt;&amp;lt; &quot;Количество элементов с этим значением: &quot; &amp;lt;&amp;lt; count &amp;lt;&amp;lt; endl;" style="shape=parallelogram;perimeter=parallelogramPerimeter;whiteSpace=wrap;html=1;fixedSize=1;sketch=0;" parent="1" vertex="1">
                    <mxGeometry x="207.52" y="1160" width="337.49" height="40" as="geometry"/>
                </mxCell>
                <mxCell id="318" value="1" style="edgeStyle=orthogonalEdgeStyle;html=1;" edge="1" parent="1" source="319" target="321">
                    <mxGeometry relative="1" as="geometry"/>
                </mxCell>
                <mxCell id="327" value="0" style="edgeStyle=orthogonalEdgeStyle;rounded=0;html=1;" edge="1" parent="1" source="319" target="326">
                    <mxGeometry x="-0.9039" relative="1" as="geometry">
                        <Array as="points">
                            <mxPoint x="560" y="395"/>
                            <mxPoint x="560" y="620"/>
                            <mxPoint x="375" y="620"/>
                        </Array>
                        <mxPoint as="offset"/>
                    </mxGeometry>
                </mxCell>
                <mxCell id="319" value="for (int i = 0; i &amp;lt; 5; i++)" style="shape=hexagon;perimeter=hexagonPerimeter2;whiteSpace=wrap;html=1;fixedSize=1;" vertex="1" parent="1">
                    <mxGeometry x="289.24999999999994" y="370" width="175" height="50" as="geometry"/>
                </mxCell>
                <mxCell id="320" value="" style="edgeStyle=orthogonalEdgeStyle;html=1;" edge="1" parent="1" source="321" target="323">
                    <mxGeometry relative="1" as="geometry"/>
                </mxCell>
                <mxCell id="321" value="cout &amp;lt;&amp;lt; &quot;Введите элемент массива: &quot;;" style="shape=parallelogram;perimeter=parallelogramPerimeter;whiteSpace=wrap;html=1;fixedSize=1;" vertex="1" parent="1">
                    <mxGeometry x="218.50000000000003" y="470" width="316.5" height="40" as="geometry"/>
                </mxCell>
                <mxCell id="322" style="edgeStyle=orthogonalEdgeStyle;html=1;entryX=0.003;entryY=0.48;entryDx=0;entryDy=0;entryPerimeter=0;rounded=0;" edge="1" parent="1" source="323" target="319">
                    <mxGeometry relative="1" as="geometry">
                        <Array as="points">
                            <mxPoint x="376.75" y="600"/>
                            <mxPoint x="181.75" y="600"/>
                            <mxPoint x="181.75" y="394"/>
                        </Array>
                    </mxGeometry>
                </mxCell>
                <mxCell id="323" value="cin &amp;gt;&amp;gt; a[i];" style="shape=parallelogram;perimeter=parallelogramPerimeter;whiteSpace=wrap;html=1;fixedSize=1;" vertex="1" parent="1">
                    <mxGeometry x="218.50000000000003" y="530" width="316.5" height="40" as="geometry"/>
                </mxCell>
                <mxCell id="329" value="1" style="edgeStyle=orthogonalEdgeStyle;rounded=0;html=1;" edge="1" parent="1" source="326" target="328">
                    <mxGeometry relative="1" as="geometry"/>
                </mxCell>
                <mxCell id="345" value="0" style="edgeStyle=orthogonalEdgeStyle;rounded=0;html=1;" edge="1" parent="1" source="326" target="301">
                    <mxGeometry x="-0.8974" relative="1" as="geometry">
                        <Array as="points">
                            <mxPoint x="680" y="675"/>
                            <mxPoint x="680" y="1060"/>
                            <mxPoint x="377" y="1060"/>
                        </Array>
                        <mxPoint as="offset"/>
                    </mxGeometry>
                </mxCell>
                <mxCell id="326" value="for (int i = 0; i &amp;lt; 5; i++)" style="shape=hexagon;perimeter=hexagonPerimeter2;whiteSpace=wrap;html=1;fixedSize=1;" vertex="1" parent="1">
                    <mxGeometry x="287.49999999999994" y="650" width="175" height="50" as="geometry"/>
                </mxCell>
                <mxCell id="333" value="1" style="edgeStyle=orthogonalEdgeStyle;rounded=0;html=1;entryX=0.51;entryY=-0.017;entryDx=0;entryDy=0;entryPerimeter=0;" edge="1" parent="1" source="328" target="330">
                    <mxGeometry relative="1" as="geometry"/>
                </mxCell>
                <mxCell id="335" value="0" style="edgeStyle=orthogonalEdgeStyle;rounded=0;html=1;" edge="1" parent="1" source="328" target="334">
                    <mxGeometry relative="1" as="geometry">
                        <Array as="points">
                            <mxPoint x="535" y="765"/>
                        </Array>
                    </mxGeometry>
                </mxCell>
                <mxCell id="328" value="if (a[i] &amp;gt; max)" style="rhombus;whiteSpace=wrap;html=1;" vertex="1" parent="1">
                    <mxGeometry x="315" y="730" width="120" height="70" as="geometry"/>
                </mxCell>
                <mxCell id="332" value="" style="edgeStyle=orthogonalEdgeStyle;rounded=0;html=1;" edge="1" parent="1" source="330" target="331">
                    <mxGeometry relative="1" as="geometry"/>
                </mxCell>
                <mxCell id="330" value="max = a[i];" style="rounded=0;whiteSpace=wrap;html=1;" vertex="1" parent="1">
                    <mxGeometry x="185" y="800" width="120" height="50" as="geometry"/>
                </mxCell>
                <mxCell id="341" style="edgeStyle=orthogonalEdgeStyle;rounded=0;html=1;" edge="1" parent="1" source="331">
                    <mxGeometry relative="1" as="geometry">
                        <mxPoint x="380" y="1010" as="targetPoint"/>
                        <Array as="points">
                            <mxPoint x="245" y="1010"/>
                        </Array>
                    </mxGeometry>
                </mxCell>
                <mxCell id="331" value="count = 1;" style="rounded=0;whiteSpace=wrap;html=1;" vertex="1" parent="1">
                    <mxGeometry x="185" y="870" width="120" height="50" as="geometry"/>
                </mxCell>
                <mxCell id="338" style="edgeStyle=orthogonalEdgeStyle;rounded=0;html=1;" edge="1" parent="1" source="334" target="336">
                    <mxGeometry relative="1" as="geometry">
                        <Array as="points">
                            <mxPoint x="423" y="825"/>
                        </Array>
                    </mxGeometry>
                </mxCell>
                <mxCell id="339" value="0" style="edgeStyle=orthogonalEdgeStyle;rounded=0;html=1;exitX=0.958;exitY=0.512;exitDx=0;exitDy=0;exitPerimeter=0;" edge="1" parent="1" source="334">
                    <mxGeometry x="-0.8118" relative="1" as="geometry">
                        <mxPoint x="535" y="950" as="targetPoint"/>
                        <Array as="points">
                            <mxPoint x="660" y="826"/>
                            <mxPoint x="660" y="950"/>
                        </Array>
                        <mxPoint as="offset"/>
                    </mxGeometry>
                </mxCell>
                <mxCell id="334" value="if (a[i] == max)" style="rhombus;whiteSpace=wrap;html=1;" vertex="1" parent="1">
                    <mxGeometry x="475" y="790" width="120" height="70" as="geometry"/>
                </mxCell>
                <mxCell id="340" style="edgeStyle=orthogonalEdgeStyle;rounded=0;html=1;" edge="1" parent="1" source="336">
                    <mxGeometry relative="1" as="geometry">
                        <mxPoint x="540" y="950" as="targetPoint"/>
                        <Array as="points">
                            <mxPoint x="423" y="950"/>
                        </Array>
                    </mxGeometry>
                </mxCell>
                <mxCell id="336" value="count++;" style="rounded=0;whiteSpace=wrap;html=1;" vertex="1" parent="1">
                    <mxGeometry x="363.25" y="860" width="120" height="50" as="geometry"/>
                </mxCell>
                <mxCell id="342" value="" style="endArrow=classic;html=1;rounded=0;" edge="1" parent="1">
                    <mxGeometry width="50" height="50" relative="1" as="geometry">
                        <mxPoint x="540" y="950" as="sourcePoint"/>
                        <mxPoint x="380" y="1010" as="targetPoint"/>
                        <Array as="points">
                            <mxPoint x="540" y="1010"/>
                        </Array>
                    </mxGeometry>
                </mxCell>
                <mxCell id="343" value="" style="endArrow=classic;html=1;rounded=0;entryX=0.002;entryY=0.45;entryDx=0;entryDy=0;entryPerimeter=0;" edge="1" parent="1" target="326">
                    <mxGeometry width="50" height="50" relative="1" as="geometry">
                        <mxPoint x="380" y="1010" as="sourcePoint"/>
                        <mxPoint x="420" y="950" as="targetPoint"/>
                        <Array as="points">
                            <mxPoint x="380" y="1050"/>
                            <mxPoint x="160" y="1050"/>
                            <mxPoint x="160" y="673"/>
                        </Array>
                    </mxGeometry>
                </mxCell>
            </root>
        </mxGraphModel>
    </diagram>
</mxfile>